<mxfile host="Electron" modified="2023-05-17T12:37:58.050Z" agent="Mozilla/5.0 (Windows NT 10.0; Win64; x64) AppleWebKit/537.36 (KHTML, like Gecko) draw.io/21.2.8 Chrome/112.0.5615.165 Electron/24.2.0 Safari/537.36" etag="UrbaIoIR2fxvoroFg0_O" version="21.2.8" type="device">
  <diagram name="Page-1" id="WcRpKhG78xrK30DCyWYJ">
    <mxGraphModel dx="9060" dy="3707" grid="1" gridSize="10" guides="1" tooltips="1" connect="1" arrows="1" fold="1" page="1" pageScale="1" pageWidth="3300" pageHeight="4681" math="0" shadow="0">
      <root>
        <mxCell id="0" />
        <mxCell id="1" parent="0" />
        <mxCell id="mHQkvC2rGd7bI0yAE8_2-2" value="Patient" style="align=center;aspect=fixed;fontSize=54;fontStyle=1;labelBorderColor=none;strokeWidth=4;" parent="1" vertex="1">
          <mxGeometry x="500" y="783" width="517.5" height="207" as="geometry" />
        </mxCell>
        <mxCell id="mHQkvC2rGd7bI0yAE8_2-3" value="Payment" style="align=center;aspect=fixed;fontSize=54;fontStyle=1;labelBorderColor=none;strokeWidth=4;" parent="1" vertex="1">
          <mxGeometry x="-500" y="2120" width="510" height="204" as="geometry" />
        </mxCell>
        <mxCell id="mHQkvC2rGd7bI0yAE8_2-4" value="Health check-up" style="align=center;aspect=fixed;fontSize=54;fontStyle=1;labelBorderColor=none;strokeWidth=4;" parent="1" vertex="1">
          <mxGeometry x="1710" y="1850" width="545" height="218" as="geometry" />
        </mxCell>
        <mxCell id="mHQkvC2rGd7bI0yAE8_2-6" value="Doctor" style="align=center;aspect=fixed;fontSize=54;fontStyle=1;labelBorderColor=none;strokeWidth=4;" parent="1" vertex="1">
          <mxGeometry x="2910" y="775" width="500" height="200" as="geometry" />
        </mxCell>
        <mxCell id="mHQkvC2rGd7bI0yAE8_2-7" value="Report" style="align=center;aspect=fixed;fontSize=54;fontStyle=1;labelBorderColor=none;strokeWidth=5;" parent="1" vertex="1">
          <mxGeometry x="3070" y="2848" width="475" height="190" as="geometry" />
        </mxCell>
        <mxCell id="mHQkvC2rGd7bI0yAE8_2-8" value="Nutritionist" style="align=center;aspect=fixed;fontSize=54;fontStyle=1;labelBorderColor=none;strokeWidth=4;" parent="1" vertex="1">
          <mxGeometry x="1420" y="3985" width="500" height="200" as="geometry" />
        </mxCell>
        <mxCell id="mHQkvC2rGd7bI0yAE8_2-9" value="" style="shape=ext;margin=3;double=1;align=center;fontSize=54;spacingTop=1;fontStyle=1;labelBorderColor=none;strokeWidth=4;" parent="1" vertex="1">
          <mxGeometry x="3290" y="3960" width="590" height="250" as="geometry" />
        </mxCell>
        <mxCell id="mHQkvC2rGd7bI0yAE8_2-13" value="PID" style="ellipse;align=center;fontSize=54;strokeWidth=4;fontStyle=1;labelBorderColor=none;" parent="1" vertex="1">
          <mxGeometry x="230" y="280" width="335" height="190" as="geometry" />
        </mxCell>
        <mxCell id="mHQkvC2rGd7bI0yAE8_2-14" value="DOB" style="ellipse;align=center;fontSize=54;strokeWidth=4;fontStyle=1;labelBorderColor=none;" parent="1" vertex="1">
          <mxGeometry x="-155" y="970" width="330" height="180" as="geometry" />
        </mxCell>
        <mxCell id="mHQkvC2rGd7bI0yAE8_2-15" value="Gender" style="ellipse;align=center;fontSize=54;strokeWidth=4;fontStyle=1;labelBorderColor=none;" parent="1" vertex="1">
          <mxGeometry x="1130" y="520" width="382.5" height="180" as="geometry" />
        </mxCell>
        <mxCell id="mHQkvC2rGd7bI0yAE8_2-16" value="Pname" style="ellipse;align=center;fontSize=54;fontStyle=1;labelBorderColor=none;strokeWidth=4;" parent="1" vertex="1">
          <mxGeometry x="530" y="190" width="450" height="150" as="geometry" />
        </mxCell>
        <mxCell id="mHQkvC2rGd7bI0yAE8_2-17" value="Age" style="ellipse;align=center;dashed=1;fontSize=54;strokeWidth=4;fontStyle=1;labelBorderColor=none;" parent="1" vertex="1">
          <mxGeometry x="-10" y="450" width="340" height="170" as="geometry" />
        </mxCell>
        <mxCell id="mHQkvC2rGd7bI0yAE8_2-18" value="Has" style="shape=rhombus;perimeter=rhombusPerimeter;align=center;fontSize=54;fontStyle=1;labelBorderColor=none;strokeWidth=4;" parent="1" vertex="1">
          <mxGeometry x="2320" y="3940" width="490" height="280" as="geometry" />
        </mxCell>
        <mxCell id="mHQkvC2rGd7bI0yAE8_2-19" value="Pay" style="shape=rhombus;perimeter=rhombusPerimeter;align=center;fontSize=54;fontStyle=1;labelBorderColor=none;strokeWidth=4;" parent="1" vertex="1">
          <mxGeometry x="-190" y="1460" width="570" height="210" as="geometry" />
        </mxCell>
        <mxCell id="mHQkvC2rGd7bI0yAE8_2-20" value="Provide" style="shape=rhombus;perimeter=rhombusPerimeter;align=center;fontSize=54;fontStyle=1;labelBorderColor=none;strokeWidth=4;" parent="1" vertex="1">
          <mxGeometry x="1980" y="1170" width="540" height="210" as="geometry" />
        </mxCell>
        <mxCell id="mHQkvC2rGd7bI0yAE8_2-21" value="Has" style="shape=rhombus;perimeter=rhombusPerimeter;align=center;fontSize=54;fontStyle=1;labelBorderColor=none;strokeWidth=4;" parent="1" vertex="1">
          <mxGeometry x="180" y="1800" width="630" height="230" as="geometry" />
        </mxCell>
        <mxCell id="mHQkvC2rGd7bI0yAE8_2-29" value="Has" style="shape=rhombus;perimeter=rhombusPerimeter;align=center;fontSize=54;fontStyle=1;labelBorderColor=none;strokeWidth=4;" parent="1" vertex="1">
          <mxGeometry x="500" y="3500" width="650" height="270" as="geometry" />
        </mxCell>
        <mxCell id="mHQkvC2rGd7bI0yAE8_2-30" value="Check" style="shape=rhombus;perimeter=rhombusPerimeter;align=center;fontSize=54;strokeWidth=4;fontStyle=1;labelBorderColor=none;" parent="1" vertex="1">
          <mxGeometry x="1350" y="1150" width="490" height="260" as="geometry" />
        </mxCell>
        <mxCell id="mHQkvC2rGd7bI0yAE8_2-32" value="has" style="shape=rhombus;perimeter=rhombusPerimeter;align=center;fontSize=54;fontStyle=1;labelBorderColor=none;strokeWidth=4;" parent="1" vertex="1">
          <mxGeometry x="1680" y="750" width="570" height="250" as="geometry" />
        </mxCell>
        <mxCell id="mHQkvC2rGd7bI0yAE8_2-40" value="" style="endArrow=none;rounded=0;entryX=0.5;entryY=0;entryDx=0;entryDy=0;exitX=0.5;exitY=1;exitDx=0;exitDy=0;align=center;fontSize=54;fontStyle=1;labelBorderColor=none;strokeWidth=4;" parent="1" source="mHQkvC2rGd7bI0yAE8_2-21" target="mHQkvC2rGd7bI0yAE8_2-5" edge="1">
          <mxGeometry relative="1" as="geometry">
            <mxPoint x="1110" y="2480" as="sourcePoint" />
            <mxPoint x="1270" y="2480" as="targetPoint" />
            <Array as="points">
              <mxPoint x="390" y="3040" />
            </Array>
          </mxGeometry>
        </mxCell>
        <mxCell id="mHQkvC2rGd7bI0yAE8_2-41" value="1" style="resizable=0;whiteSpace=wrap;align=center;verticalAlign=bottom;fontSize=54;fontStyle=1;labelBorderColor=none;" parent="mHQkvC2rGd7bI0yAE8_2-40" connectable="0" vertex="1">
          <mxGeometry x="1" relative="1" as="geometry">
            <mxPoint x="-650" y="-299" as="offset" />
          </mxGeometry>
        </mxCell>
        <mxCell id="mHQkvC2rGd7bI0yAE8_2-46" value="" style="endArrow=none;rounded=0;strokeWidth=4;fontSize=54;fontStyle=1;exitX=1;exitY=0.5;exitDx=0;exitDy=0;entryX=0.25;entryY=0;entryDx=0;entryDy=0;labelBorderColor=none;" parent="1" source="mHQkvC2rGd7bI0yAE8_2-30" target="mHQkvC2rGd7bI0yAE8_2-4" edge="1">
          <mxGeometry width="50" height="50" relative="1" as="geometry">
            <mxPoint x="1840" y="1350" as="sourcePoint" />
            <mxPoint x="1840" y="1785" as="targetPoint" />
            <Array as="points" />
          </mxGeometry>
        </mxCell>
        <mxCell id="mHQkvC2rGd7bI0yAE8_2-58" value="" style="endArrow=none;rounded=0;exitX=0;exitY=0.5;exitDx=0;exitDy=0;strokeWidth=4;fontSize=54;fontStyle=1;entryX=0.5;entryY=0;entryDx=0;entryDy=0;labelBorderColor=none;" parent="1" source="mHQkvC2rGd7bI0yAE8_2-20" target="mHQkvC2rGd7bI0yAE8_2-4" edge="1">
          <mxGeometry width="50" height="50" relative="1" as="geometry">
            <mxPoint x="1780" y="1400" as="sourcePoint" />
            <mxPoint x="1980" y="1660" as="targetPoint" />
          </mxGeometry>
        </mxCell>
        <mxCell id="mHQkvC2rGd7bI0yAE8_2-63" value="Pname" style="ellipse;align=center;fontSize=54;fontStyle=1;labelBorderColor=none;strokeWidth=4;" parent="1" vertex="1">
          <mxGeometry x="-1070" y="2152" width="390" height="172" as="geometry" />
        </mxCell>
        <mxCell id="mHQkvC2rGd7bI0yAE8_2-64" value="type" style="ellipse;align=center;fontSize=54;fontStyle=1;labelBorderColor=none;strokeWidth=4;" parent="1" vertex="1">
          <mxGeometry x="-740" y="2480" width="540" height="158" as="geometry" />
        </mxCell>
        <mxCell id="mHQkvC2rGd7bI0yAE8_2-65" value="ID" style="ellipse;align=center;fontSize=54;fontStyle=1;labelBorderColor=none;strokeWidth=4;" parent="1" vertex="1">
          <mxGeometry x="-60" y="2480" width="435" height="120" as="geometry" />
        </mxCell>
        <mxCell id="mHQkvC2rGd7bI0yAE8_2-68" value="PID" style="ellipse;align=center;fontStyle=5;fontSize=54;labelBorderColor=none;strokeWidth=4;" parent="1" vertex="1">
          <mxGeometry x="-860" y="1910" width="410" height="120" as="geometry" />
        </mxCell>
        <mxCell id="mHQkvC2rGd7bI0yAE8_2-69" value="Type" style="ellipse;align=center;fontSize=54;fontStyle=1;labelBorderColor=none;strokeWidth=4;" parent="1" vertex="1">
          <mxGeometry x="4120" y="3930" width="350" height="170" as="geometry" />
        </mxCell>
        <mxCell id="mHQkvC2rGd7bI0yAE8_2-70" value="NiD" style="ellipse;align=center;fontStyle=5;fontSize=54;labelBorderColor=none;strokeWidth=4;" parent="1" vertex="1">
          <mxGeometry x="4040" y="4255" width="400" height="150" as="geometry" />
        </mxCell>
        <mxCell id="mHQkvC2rGd7bI0yAE8_2-71" value="MPname" style="ellipse;align=center;fontSize=54;fontStyle=1;labelBorderColor=none;strokeWidth=4;" parent="1" vertex="1">
          <mxGeometry x="3790" y="3640" width="420" height="170" as="geometry" />
        </mxCell>
        <mxCell id="mHQkvC2rGd7bI0yAE8_2-72" value="Nname" style="ellipse;align=center;fontSize=54;fontStyle=1;labelBorderColor=none;strokeWidth=4;" parent="1" vertex="1">
          <mxGeometry x="1650" y="3570" width="480" height="170" as="geometry" />
        </mxCell>
        <mxCell id="mHQkvC2rGd7bI0yAE8_2-73" value="NiD" style="ellipse;align=center;fontSize=54;fontStyle=1;labelBorderColor=none;strokeWidth=4;" parent="1" vertex="1">
          <mxGeometry x="1170" y="3460" width="470" height="200" as="geometry" />
        </mxCell>
        <mxCell id="mHQkvC2rGd7bI0yAE8_2-74" value="Diet report" style="ellipse;align=center;fontSize=54;fontStyle=1;labelBorderColor=none;strokeWidth=5;" parent="1" vertex="1">
          <mxGeometry x="3500" y="2400" width="440" height="230" as="geometry" />
        </mxCell>
        <mxCell id="mHQkvC2rGd7bI0yAE8_2-75" value="Health report" style="ellipse;align=center;fontSize=54;fontStyle=1;labelBorderColor=none;strokeWidth=5;" parent="1" vertex="1">
          <mxGeometry x="3760" y="2710" width="500" height="218" as="geometry" />
        </mxCell>
        <mxCell id="mHQkvC2rGd7bI0yAE8_2-76" value="PiD" style="ellipse;align=center;fontSize=54;fontStyle=1;labelBorderColor=none;strokeWidth=5;" parent="1" vertex="1">
          <mxGeometry x="3700" y="3109" width="485" height="180" as="geometry" />
        </mxCell>
        <mxCell id="mHQkvC2rGd7bI0yAE8_2-78" value="RiD" style="ellipse;align=center;fontStyle=5;fontSize=54;labelBorderColor=none;strokeWidth=5;" parent="1" vertex="1">
          <mxGeometry x="2930" y="2380" width="390" height="235" as="geometry" />
        </mxCell>
        <mxCell id="mHQkvC2rGd7bI0yAE8_2-80" value="PiD" style="ellipse;align=center;fontSize=54;fontStyle=1;labelBorderColor=none;strokeWidth=5;" parent="1" vertex="1">
          <mxGeometry x="2640" y="2220" width="380" height="120" as="geometry" />
        </mxCell>
        <mxCell id="mHQkvC2rGd7bI0yAE8_2-81" value="cholesterol" style="ellipse;align=center;fontSize=54;fontStyle=1;labelBorderColor=none;strokeWidth=4;" parent="1" vertex="1">
          <mxGeometry x="2880" y="2050" width="500" height="120" as="geometry" />
        </mxCell>
        <mxCell id="mHQkvC2rGd7bI0yAE8_2-82" value="Pressure" style="ellipse;align=center;fontSize=54;fontStyle=1;labelBorderColor=none;strokeWidth=4;" parent="1" vertex="1">
          <mxGeometry x="2920" y="1850" width="460" height="120" as="geometry" />
        </mxCell>
        <mxCell id="mHQkvC2rGd7bI0yAE8_2-83" value="blood sugar" style="ellipse;align=center;fontSize=54;fontStyle=1;labelBorderColor=none;strokeWidth=4;" parent="1" vertex="1">
          <mxGeometry x="2890" y="1640" width="580" height="130" as="geometry" />
        </mxCell>
        <mxCell id="mHQkvC2rGd7bI0yAE8_2-86" value="" style="ellipse;align=center;fontSize=54;fontStyle=1;labelBorderColor=none;strokeWidth=4;" parent="1" vertex="1">
          <mxGeometry x="1130" y="2030" width="440" height="190" as="geometry" />
        </mxCell>
        <mxCell id="mHQkvC2rGd7bI0yAE8_2-87" value="Location" style="ellipse;align=center;fontSize=54;fontStyle=1;labelBorderColor=none;strokeWidth=4;" parent="1" vertex="1">
          <mxGeometry x="1150" y="1820" width="410" height="170" as="geometry" />
        </mxCell>
        <mxCell id="mHQkvC2rGd7bI0yAE8_2-88" value="Date" style="ellipse;align=center;fontSize=54;strokeWidth=4;fontStyle=1;labelBorderColor=none;" parent="1" vertex="1">
          <mxGeometry x="1215" y="1580" width="390" height="140" as="geometry" />
        </mxCell>
        <mxCell id="mHQkvC2rGd7bI0yAE8_2-89" value="DiD" style="ellipse;align=center;fontSize=54;fontStyle=1;labelBorderColor=none;strokeWidth=4;" parent="1" vertex="1">
          <mxGeometry x="2440" y="1430" width="460" height="180" as="geometry" />
        </mxCell>
        <mxCell id="mHQkvC2rGd7bI0yAE8_2-90" value="Check-up ID" style="ellipse;align=center;fontStyle=5;fontSize=54;labelBorderColor=none;strokeWidth=5;" parent="1" vertex="1">
          <mxGeometry x="1230" y="2260" width="460" height="162" as="geometry" />
        </mxCell>
        <mxCell id="mHQkvC2rGd7bI0yAE8_2-92" value="DpReport" style="ellipse;align=center;fontSize=54;fontStyle=1;labelBorderColor=none;strokeWidth=4;" parent="1" vertex="1">
          <mxGeometry x="-1000" y="3239" width="440" height="180" as="geometry" />
        </mxCell>
        <mxCell id="mHQkvC2rGd7bI0yAE8_2-93" value="NiD" style="ellipse;align=center;fontSize=54;fontStyle=1;labelBorderColor=none;strokeWidth=4;" parent="1" vertex="1">
          <mxGeometry x="-720" y="2947" width="320" height="160" as="geometry" />
        </mxCell>
        <mxCell id="mHQkvC2rGd7bI0yAE8_2-94" value="DPiD" style="ellipse;align=center;fontStyle=5;fontSize=54;labelBorderColor=none;strokeWidth=4;" parent="1" vertex="1">
          <mxGeometry x="-340" y="2909" width="380" height="160" as="geometry" />
        </mxCell>
        <mxCell id="mHQkvC2rGd7bI0yAE8_2-95" value="speciality&#xa;" style="ellipse;align=center;fontSize=54;fontStyle=1;labelBorderColor=none;strokeWidth=4;" parent="1" vertex="1">
          <mxGeometry x="3360" y="230" width="420" height="190" as="geometry" />
        </mxCell>
        <mxCell id="mHQkvC2rGd7bI0yAE8_2-96" value="Dname" style="ellipse;align=center;fontSize=54;fontStyle=1;labelBorderColor=none;strokeWidth=4;" parent="1" vertex="1">
          <mxGeometry x="2920" y="230" width="380" height="170" as="geometry" />
        </mxCell>
        <mxCell id="mHQkvC2rGd7bI0yAE8_2-100" value="" style="endArrow=none;rounded=0;fontSize=54;fontStyle=1;labelBorderColor=none;strokeWidth=4;" parent="1" source="mHQkvC2rGd7bI0yAE8_2-63" edge="1">
          <mxGeometry width="50" height="50" relative="1" as="geometry">
            <mxPoint x="-580" y="2380" as="sourcePoint" />
            <mxPoint x="-520" y="2250" as="targetPoint" />
          </mxGeometry>
        </mxCell>
        <mxCell id="mHQkvC2rGd7bI0yAE8_2-101" value="" style="endArrow=none;rounded=0;exitX=0.5;exitY=0;exitDx=0;exitDy=0;entryX=0.5;entryY=1;entryDx=0;entryDy=0;fontSize=54;fontStyle=1;labelBorderColor=none;strokeWidth=4;" parent="1" source="mHQkvC2rGd7bI0yAE8_2-64" target="mHQkvC2rGd7bI0yAE8_2-3" edge="1">
          <mxGeometry width="50" height="50" relative="1" as="geometry">
            <mxPoint x="-390" y="2440" as="sourcePoint" />
            <mxPoint x="-270" y="2100" as="targetPoint" />
          </mxGeometry>
        </mxCell>
        <mxCell id="mHQkvC2rGd7bI0yAE8_2-102" value="" style="endArrow=none;rounded=0;entryX=1;entryY=1;entryDx=0;entryDy=0;fontSize=54;fontStyle=1;labelBorderColor=none;strokeWidth=4;" parent="1" target="mHQkvC2rGd7bI0yAE8_2-3" edge="1">
          <mxGeometry width="50" height="50" relative="1" as="geometry">
            <mxPoint x="158" y="2470" as="sourcePoint" />
            <mxPoint x="-170" y="2300" as="targetPoint" />
          </mxGeometry>
        </mxCell>
        <mxCell id="mHQkvC2rGd7bI0yAE8_2-103" value="" style="endArrow=none;rounded=0;entryX=1;entryY=1;entryDx=0;entryDy=0;exitX=0.5;exitY=0;exitDx=0;exitDy=0;fontSize=54;fontStyle=1;labelBorderColor=none;strokeWidth=4;" parent="1" source="mHQkvC2rGd7bI0yAE8_2-3" target="mHQkvC2rGd7bI0yAE8_2-68" edge="1">
          <mxGeometry width="50" height="50" relative="1" as="geometry">
            <mxPoint x="-420" y="2160" as="sourcePoint" />
            <mxPoint x="-370" y="2110" as="targetPoint" />
          </mxGeometry>
        </mxCell>
        <mxCell id="mHQkvC2rGd7bI0yAE8_2-109" value="" style="endArrow=none;rounded=0;entryX=0;entryY=0.5;entryDx=0;entryDy=0;exitX=1;exitY=0.5;exitDx=0;exitDy=0;fontSize=54;fontStyle=1;labelBorderColor=none;strokeWidth=4;" parent="1" source="mHQkvC2rGd7bI0yAE8_2-87" target="mHQkvC2rGd7bI0yAE8_2-4" edge="1">
          <mxGeometry width="50" height="50" relative="1" as="geometry">
            <mxPoint x="1590" y="2030" as="sourcePoint" />
            <mxPoint x="1640" y="1980" as="targetPoint" />
          </mxGeometry>
        </mxCell>
        <mxCell id="mHQkvC2rGd7bI0yAE8_2-110" value="" style="endArrow=none;rounded=0;entryX=0;entryY=1;entryDx=0;entryDy=0;exitX=0.994;exitY=0.383;exitDx=0;exitDy=0;exitPerimeter=0;fontSize=54;fontStyle=1;labelBorderColor=none;strokeWidth=4;" parent="1" source="mHQkvC2rGd7bI0yAE8_2-86" target="mHQkvC2rGd7bI0yAE8_2-4" edge="1">
          <mxGeometry width="50" height="50" relative="1" as="geometry">
            <mxPoint x="1640" y="2160" as="sourcePoint" />
            <mxPoint x="1710.7106781186549" y="2110" as="targetPoint" />
          </mxGeometry>
        </mxCell>
        <mxCell id="mHQkvC2rGd7bI0yAE8_2-112" value="" style="endArrow=none;rounded=0;exitX=1;exitY=0.75;exitDx=0;exitDy=0;fontSize=54;fontStyle=1;entryX=0;entryY=0.5;entryDx=0;entryDy=0;labelBorderColor=none;strokeWidth=4;" parent="1" source="mHQkvC2rGd7bI0yAE8_2-4" target="mHQkvC2rGd7bI0yAE8_2-80" edge="1">
          <mxGeometry width="50" height="50" relative="1" as="geometry">
            <mxPoint x="2389.999999999998" y="2048" as="sourcePoint" />
            <mxPoint x="2515" y="2150" as="targetPoint" />
          </mxGeometry>
        </mxCell>
        <mxCell id="mHQkvC2rGd7bI0yAE8_2-126" value="" style="endArrow=none;rounded=0;entryX=0;entryY=0.5;entryDx=0;entryDy=0;fontSize=54;fontStyle=1;labelBorderColor=none;strokeWidth=4;" parent="1" target="mHQkvC2rGd7bI0yAE8_2-83" edge="1">
          <mxGeometry width="50" height="50" relative="1" as="geometry">
            <mxPoint x="2260" y="1910" as="sourcePoint" />
            <mxPoint x="2834.289321881346" y="1782.4264068711936" as="targetPoint" />
          </mxGeometry>
        </mxCell>
        <mxCell id="mHQkvC2rGd7bI0yAE8_2-127" value="" style="endArrow=none;rounded=0;entryX=0;entryY=0.5;entryDx=0;entryDy=0;fontSize=54;fontStyle=1;labelBorderColor=none;strokeWidth=4;" parent="1" target="mHQkvC2rGd7bI0yAE8_2-81" edge="1">
          <mxGeometry width="50" height="50" relative="1" as="geometry">
            <mxPoint x="2270" y="2010" as="sourcePoint" />
            <mxPoint x="2715" y="2100" as="targetPoint" />
          </mxGeometry>
        </mxCell>
        <mxCell id="mHQkvC2rGd7bI0yAE8_2-128" value="" style="endArrow=none;rounded=0;entryX=0;entryY=0.5;entryDx=0;entryDy=0;fontSize=54;fontStyle=1;labelBorderColor=none;strokeWidth=4;" parent="1" target="mHQkvC2rGd7bI0yAE8_2-82" edge="1">
          <mxGeometry width="50" height="50" relative="1" as="geometry">
            <mxPoint x="2250" y="1960" as="sourcePoint" />
            <mxPoint x="2765" y="2000" as="targetPoint" />
          </mxGeometry>
        </mxCell>
        <mxCell id="mHQkvC2rGd7bI0yAE8_2-129" value="" style="endArrow=none;rounded=0;entryX=0;entryY=1;entryDx=0;entryDy=0;fontSize=54;fontStyle=1;labelBorderColor=none;strokeWidth=4;" parent="1" target="mHQkvC2rGd7bI0yAE8_2-89" edge="1">
          <mxGeometry width="50" height="50" relative="1" as="geometry">
            <mxPoint x="2130" y="1850" as="sourcePoint" />
            <mxPoint x="2000" y="1800" as="targetPoint" />
          </mxGeometry>
        </mxCell>
        <mxCell id="mHQkvC2rGd7bI0yAE8_2-130" value="" style="endArrow=none;rounded=0;strokeWidth=4;entryX=1;entryY=1;entryDx=0;entryDy=0;fontSize=54;fontStyle=1;labelBorderColor=none;" parent="1" target="mHQkvC2rGd7bI0yAE8_2-88" edge="1">
          <mxGeometry width="50" height="50" relative="1" as="geometry">
            <mxPoint x="1740" y="1910" as="sourcePoint" />
            <mxPoint x="1630" y="1720" as="targetPoint" />
          </mxGeometry>
        </mxCell>
        <mxCell id="mHQkvC2rGd7bI0yAE8_2-131" value="" style="endArrow=none;rounded=0;entryX=0.25;entryY=1;entryDx=0;entryDy=0;exitX=1;exitY=0;exitDx=0;exitDy=0;fontSize=54;fontStyle=1;labelBorderColor=none;strokeWidth=4;" parent="1" source="mHQkvC2rGd7bI0yAE8_2-90" target="mHQkvC2rGd7bI0yAE8_2-4" edge="1">
          <mxGeometry width="50" height="50" relative="1" as="geometry">
            <mxPoint x="1680" y="2160" as="sourcePoint" />
            <mxPoint x="1760" y="2140" as="targetPoint" />
          </mxGeometry>
        </mxCell>
        <mxCell id="mHQkvC2rGd7bI0yAE8_2-136" value="DID" style="ellipse;align=center;fontStyle=5;fontSize=54;labelBorderColor=none;strokeWidth=4;" parent="1" vertex="1">
          <mxGeometry x="2430" y="360" width="340" height="170" as="geometry" />
        </mxCell>
        <mxCell id="00rONBYvEzlFTDpirwAL-15" style="edgeStyle=orthogonalEdgeStyle;rounded=0;orthogonalLoop=1;jettySize=auto;html=1;exitX=0.5;exitY=1;exitDx=0;exitDy=0;labelBorderColor=none;strokeWidth=4;fontSize=54;" edge="1" parent="1" source="mHQkvC2rGd7bI0yAE8_2-17" target="mHQkvC2rGd7bI0yAE8_2-17">
          <mxGeometry relative="1" as="geometry" />
        </mxCell>
        <mxCell id="00rONBYvEzlFTDpirwAL-18" value="" style="ellipse;whiteSpace=wrap;html=1;labelBorderColor=none;strokeWidth=4;fontSize=54;" vertex="1" parent="1">
          <mxGeometry x="-180" y="660" width="380" height="280" as="geometry" />
        </mxCell>
        <mxCell id="00rONBYvEzlFTDpirwAL-19" value="&lt;font style=&quot;font-size: 54px;&quot;&gt;&lt;b style=&quot;font-size: 54px;&quot;&gt;phone&lt;/b&gt;&lt;/font&gt;" style="ellipse;whiteSpace=wrap;html=1;labelBorderColor=none;strokeWidth=4;fontSize=54;" vertex="1" parent="1">
          <mxGeometry x="-155" y="690" width="320" height="220" as="geometry" />
        </mxCell>
        <mxCell id="00rONBYvEzlFTDpirwAL-21" value="&lt;font style=&quot;font-size: 54px;&quot;&gt;&lt;b style=&quot;font-size: 54px;&quot;&gt;Fname&lt;/b&gt;&lt;/font&gt;" style="ellipse;whiteSpace=wrap;html=1;fontSize=54;" vertex="1" parent="1">
          <mxGeometry x="940" y="20" width="280" height="140" as="geometry" />
        </mxCell>
        <mxCell id="00rONBYvEzlFTDpirwAL-22" value="&lt;font style=&quot;font-size: 54px;&quot;&gt;&lt;b style=&quot;font-size: 54px;&quot;&gt;Lname&lt;/b&gt;&lt;/font&gt;" style="ellipse;whiteSpace=wrap;html=1;labelBorderColor=none;strokeWidth=4;fontSize=54;" vertex="1" parent="1">
          <mxGeometry x="950" y="350" width="280" height="140" as="geometry" />
        </mxCell>
        <mxCell id="00rONBYvEzlFTDpirwAL-30" value="" style="endArrow=none;rounded=0;entryX=0;entryY=0;entryDx=0;entryDy=0;exitX=1;exitY=1;exitDx=0;exitDy=0;fontSize=54;fontStyle=1;labelBorderColor=none;strokeWidth=4;" edge="1" parent="1" source="mHQkvC2rGd7bI0yAE8_2-16" target="00rONBYvEzlFTDpirwAL-22">
          <mxGeometry width="50" height="50" relative="1" as="geometry">
            <mxPoint x="1670" y="210" as="sourcePoint" />
            <mxPoint x="1789.289321881346" y="42.42640687119365" as="targetPoint" />
          </mxGeometry>
        </mxCell>
        <mxCell id="00rONBYvEzlFTDpirwAL-31" value="" style="endArrow=none;rounded=0;entryX=0;entryY=1;entryDx=0;entryDy=0;exitX=1;exitY=0;exitDx=0;exitDy=0;fontSize=54;fontStyle=1;labelBorderColor=none;strokeWidth=4;" edge="1" parent="1" source="mHQkvC2rGd7bI0yAE8_2-16" target="00rONBYvEzlFTDpirwAL-21">
          <mxGeometry width="50" height="50" relative="1" as="geometry">
            <mxPoint x="1800" y="130" as="sourcePoint" />
            <mxPoint x="1919.289321881346" y="-37.57359312880635" as="targetPoint" />
          </mxGeometry>
        </mxCell>
        <mxCell id="00rONBYvEzlFTDpirwAL-32" value="" style="endArrow=none;rounded=0;entryX=1;entryY=1;entryDx=0;entryDy=0;fontSize=54;fontStyle=1;labelBorderColor=none;strokeWidth=4;" edge="1" parent="1" target="mHQkvC2rGd7bI0yAE8_2-13">
          <mxGeometry width="50" height="50" relative="1" as="geometry">
            <mxPoint x="680" y="770" as="sourcePoint" />
            <mxPoint x="689.289321881346" y="382.42640687119365" as="targetPoint" />
          </mxGeometry>
        </mxCell>
        <mxCell id="00rONBYvEzlFTDpirwAL-33" value="" style="endArrow=none;rounded=0;entryX=1;entryY=1;entryDx=0;entryDy=0;fontSize=54;fontStyle=1;labelBorderColor=none;strokeWidth=4;" edge="1" parent="1" target="mHQkvC2rGd7bI0yAE8_2-17">
          <mxGeometry width="50" height="50" relative="1" as="geometry">
            <mxPoint x="490" y="780" as="sourcePoint" />
            <mxPoint x="1525" y="-57" as="targetPoint" />
          </mxGeometry>
        </mxCell>
        <mxCell id="00rONBYvEzlFTDpirwAL-34" value="" style="endArrow=none;rounded=0;entryX=1;entryY=0.5;entryDx=0;entryDy=0;fontSize=54;fontStyle=1;exitX=0;exitY=0.5;exitDx=0;exitDy=0;labelBorderColor=none;strokeWidth=4;" edge="1" parent="1" source="mHQkvC2rGd7bI0yAE8_2-2" target="00rONBYvEzlFTDpirwAL-18">
          <mxGeometry width="50" height="50" relative="1" as="geometry">
            <mxPoint x="290" y="710" as="sourcePoint" />
            <mxPoint x="125" y="383" as="targetPoint" />
          </mxGeometry>
        </mxCell>
        <mxCell id="00rONBYvEzlFTDpirwAL-35" value="" style="endArrow=none;rounded=0;fontSize=54;fontStyle=1;exitX=0;exitY=0.75;exitDx=0;exitDy=0;labelBorderColor=none;strokeWidth=4;" edge="1" parent="1" source="mHQkvC2rGd7bI0yAE8_2-2">
          <mxGeometry width="50" height="50" relative="1" as="geometry">
            <mxPoint x="280" y="1060" as="sourcePoint" />
            <mxPoint x="170" y="1050" as="targetPoint" />
          </mxGeometry>
        </mxCell>
        <mxCell id="00rONBYvEzlFTDpirwAL-36" value="" style="endArrow=none;rounded=0;entryX=0.433;entryY=1.067;entryDx=0;entryDy=0;fontSize=54;fontStyle=1;entryPerimeter=0;labelBorderColor=none;strokeWidth=4;" edge="1" parent="1" target="mHQkvC2rGd7bI0yAE8_2-16">
          <mxGeometry width="50" height="50" relative="1" as="geometry">
            <mxPoint x="725" y="770" as="sourcePoint" />
            <mxPoint x="575" y="203" as="targetPoint" />
          </mxGeometry>
        </mxCell>
        <mxCell id="00rONBYvEzlFTDpirwAL-37" value="" style="endArrow=none;rounded=0;entryX=0;entryY=1;entryDx=0;entryDy=0;fontSize=54;fontStyle=1;labelBorderColor=none;strokeWidth=4;" edge="1" parent="1" target="mHQkvC2rGd7bI0yAE8_2-15">
          <mxGeometry width="50" height="50" relative="1" as="geometry">
            <mxPoint x="940" y="770" as="sourcePoint" />
            <mxPoint x="1575" y="-217" as="targetPoint" />
          </mxGeometry>
        </mxCell>
        <mxCell id="00rONBYvEzlFTDpirwAL-38" value="" style="endArrow=none;rounded=0;fontSize=54;fontStyle=1;exitX=0.25;exitY=0;exitDx=0;exitDy=0;labelBorderColor=none;strokeWidth=4;" edge="1" parent="1" source="mHQkvC2rGd7bI0yAE8_2-6">
          <mxGeometry width="50" height="50" relative="1" as="geometry">
            <mxPoint x="2240" y="180" as="sourcePoint" />
            <mxPoint x="2760" y="490" as="targetPoint" />
          </mxGeometry>
        </mxCell>
        <mxCell id="00rONBYvEzlFTDpirwAL-39" value="" style="endArrow=none;rounded=0;fontSize=54;fontStyle=1;entryX=0.5;entryY=1;entryDx=0;entryDy=0;labelBorderColor=none;strokeWidth=4;" edge="1" parent="1" target="mHQkvC2rGd7bI0yAE8_2-96">
          <mxGeometry width="50" height="50" relative="1" as="geometry">
            <mxPoint x="3130" y="750" as="sourcePoint" />
            <mxPoint x="2775" y="242" as="targetPoint" />
          </mxGeometry>
        </mxCell>
        <mxCell id="00rONBYvEzlFTDpirwAL-40" value="" style="endArrow=none;rounded=0;fontSize=54;fontStyle=1;exitX=0.357;exitY=1;exitDx=0;exitDy=0;exitPerimeter=0;labelBorderColor=none;strokeWidth=4;" edge="1" parent="1" source="mHQkvC2rGd7bI0yAE8_2-95">
          <mxGeometry width="50" height="50" relative="1" as="geometry">
            <mxPoint x="3330" y="610" as="sourcePoint" />
            <mxPoint x="3290" y="740" as="targetPoint" />
          </mxGeometry>
        </mxCell>
        <mxCell id="00rONBYvEzlFTDpirwAL-41" style="edgeStyle=orthogonalEdgeStyle;rounded=0;orthogonalLoop=1;jettySize=auto;html=1;exitX=0.5;exitY=1;exitDx=0;exitDy=0;labelBorderColor=none;fontSize=54;strokeWidth=5;" edge="1" parent="1" source="mHQkvC2rGd7bI0yAE8_2-81" target="mHQkvC2rGd7bI0yAE8_2-81">
          <mxGeometry relative="1" as="geometry" />
        </mxCell>
        <mxCell id="00rONBYvEzlFTDpirwAL-42" style="edgeStyle=orthogonalEdgeStyle;rounded=0;orthogonalLoop=1;jettySize=auto;html=1;exitX=0.5;exitY=1;exitDx=0;exitDy=0;labelBorderColor=none;fontSize=54;strokeWidth=5;" edge="1" parent="1" source="mHQkvC2rGd7bI0yAE8_2-81" target="mHQkvC2rGd7bI0yAE8_2-81">
          <mxGeometry relative="1" as="geometry" />
        </mxCell>
        <mxCell id="00rONBYvEzlFTDpirwAL-46" value="" style="endArrow=none;rounded=0;fontSize=54;fontStyle=1;exitX=0;exitY=0.5;exitDx=0;exitDy=0;entryX=1;entryY=0.5;entryDx=0;entryDy=0;labelBorderColor=none;strokeWidth=4;" edge="1" parent="1" source="mHQkvC2rGd7bI0yAE8_2-30" target="mHQkvC2rGd7bI0yAE8_2-2">
          <mxGeometry width="50" height="50" relative="1" as="geometry">
            <mxPoint x="1010" y="1040" as="sourcePoint" />
            <mxPoint x="735" y="772" as="targetPoint" />
          </mxGeometry>
        </mxCell>
        <mxCell id="00rONBYvEzlFTDpirwAL-47" value="" style="endArrow=none;rounded=0;fontSize=54;fontStyle=1;exitX=0;exitY=0.5;exitDx=0;exitDy=0;entryX=1;entryY=0.5;entryDx=0;entryDy=0;labelBorderColor=none;strokeWidth=4;" edge="1" parent="1" source="mHQkvC2rGd7bI0yAE8_2-6" target="mHQkvC2rGd7bI0yAE8_2-20">
          <mxGeometry width="50" height="50" relative="1" as="geometry">
            <mxPoint x="2380" y="880" as="sourcePoint" />
            <mxPoint x="2105" y="612" as="targetPoint" />
          </mxGeometry>
        </mxCell>
        <mxCell id="00rONBYvEzlFTDpirwAL-48" value="" style="endArrow=none;rounded=0;fontSize=54;fontStyle=1;exitX=0;exitY=0.5;exitDx=0;exitDy=0;labelBorderColor=none;strokeWidth=4;" edge="1" parent="1" source="mHQkvC2rGd7bI0yAE8_2-6" target="mHQkvC2rGd7bI0yAE8_2-32">
          <mxGeometry width="50" height="50" relative="1" as="geometry">
            <mxPoint x="2900" y="810" as="sourcePoint" />
            <mxPoint x="1855" y="222" as="targetPoint" />
          </mxGeometry>
        </mxCell>
        <mxCell id="00rONBYvEzlFTDpirwAL-49" value="" style="endArrow=none;rounded=0;fontSize=54;fontStyle=1;entryX=0;entryY=0.5;entryDx=0;entryDy=0;labelBorderColor=none;strokeWidth=4;" edge="1" parent="1" target="mHQkvC2rGd7bI0yAE8_2-32">
          <mxGeometry width="50" height="50" relative="1" as="geometry">
            <mxPoint x="1030" y="880" as="sourcePoint" />
            <mxPoint x="1745" y="22" as="targetPoint" />
          </mxGeometry>
        </mxCell>
        <mxCell id="00rONBYvEzlFTDpirwAL-50" value="" style="endArrow=none;rounded=0;fontSize=54;fontStyle=1;exitX=0;exitY=0.5;exitDx=0;exitDy=0;entryX=0.588;entryY=0;entryDx=0;entryDy=0;entryPerimeter=0;labelBorderColor=none;strokeWidth=4;" edge="1" parent="1" source="mHQkvC2rGd7bI0yAE8_2-19" target="mHQkvC2rGd7bI0yAE8_2-3">
          <mxGeometry width="50" height="50" relative="1" as="geometry">
            <mxPoint x="-650" y="1430" as="sourcePoint" />
            <mxPoint x="-925" y="1162" as="targetPoint" />
          </mxGeometry>
        </mxCell>
        <mxCell id="00rONBYvEzlFTDpirwAL-51" value="" style="endArrow=none;rounded=0;fontSize=54;fontStyle=1;exitX=0.5;exitY=1;exitDx=0;exitDy=0;entryX=1;entryY=0.5;entryDx=0;entryDy=0;labelBorderColor=none;strokeWidth=4;" edge="1" parent="1" source="mHQkvC2rGd7bI0yAE8_2-2" target="mHQkvC2rGd7bI0yAE8_2-19">
          <mxGeometry width="50" height="50" relative="1" as="geometry">
            <mxPoint x="-720" y="1300" as="sourcePoint" />
            <mxPoint x="430" y="1430" as="targetPoint" />
            <Array as="points">
              <mxPoint x="570" y="1490" />
            </Array>
          </mxGeometry>
        </mxCell>
        <mxCell id="00rONBYvEzlFTDpirwAL-52" value="" style="endArrow=none;rounded=0;fontSize=54;fontStyle=1;exitX=0.5;exitY=0;exitDx=0;exitDy=0;labelBorderColor=none;strokeWidth=4;" edge="1" parent="1" source="mHQkvC2rGd7bI0yAE8_2-21">
          <mxGeometry width="50" height="50" relative="1" as="geometry">
            <mxPoint x="770" y="1570" as="sourcePoint" />
            <mxPoint x="770" y="992" as="targetPoint" />
            <Array as="points">
              <mxPoint x="720" y="1580" />
            </Array>
          </mxGeometry>
        </mxCell>
        <mxCell id="mHQkvC2rGd7bI0yAE8_2-5" value="Diet Plan" style="align=center;aspect=fixed;fontSize=54;fontStyle=1;labelBorderColor=none;strokeWidth=4;" parent="1" vertex="1">
          <mxGeometry x="-420" y="3256" width="510" height="204" as="geometry" />
        </mxCell>
        <mxCell id="00rONBYvEzlFTDpirwAL-57" value="Has" style="shape=rhombus;perimeter=rhombusPerimeter;align=center;fontSize=54;fontStyle=1;labelBorderColor=none;strokeWidth=5;" vertex="1" parent="1">
          <mxGeometry x="1680" y="2460" width="640" height="270" as="geometry" />
        </mxCell>
        <mxCell id="00rONBYvEzlFTDpirwAL-58" value="Relationship" style="shape=rhombus;perimeter=rhombusPerimeter;align=center;fontSize=54;fontStyle=1;labelBorderColor=none;strokeWidth=4;" vertex="1" parent="1">
          <mxGeometry x="550" y="2070" width="640" height="270" as="geometry" />
        </mxCell>
        <mxCell id="00rONBYvEzlFTDpirwAL-65" value="" style="endArrow=none;rounded=0;entryX=0.611;entryY=1;entryDx=0;entryDy=0;fontSize=54;fontStyle=1;exitX=0.5;exitY=0;exitDx=0;exitDy=0;entryPerimeter=0;labelBorderColor=none;strokeWidth=5;" edge="1" parent="1" source="mHQkvC2rGd7bI0yAE8_2-7" target="mHQkvC2rGd7bI0yAE8_2-78">
          <mxGeometry width="50" height="50" relative="1" as="geometry">
            <mxPoint x="2815" y="2970" as="sourcePoint" />
            <mxPoint x="2588" y="2885" as="targetPoint" />
          </mxGeometry>
        </mxCell>
        <mxCell id="00rONBYvEzlFTDpirwAL-66" value="" style="endArrow=none;rounded=0;fontSize=54;fontStyle=1;exitX=0.75;exitY=0;exitDx=0;exitDy=0;labelBorderColor=none;strokeWidth=5;" edge="1" parent="1" source="mHQkvC2rGd7bI0yAE8_2-7" target="mHQkvC2rGd7bI0yAE8_2-74">
          <mxGeometry width="50" height="50" relative="1" as="geometry">
            <mxPoint x="3285" y="2720" as="sourcePoint" />
            <mxPoint x="3115" y="2582" as="targetPoint" />
          </mxGeometry>
        </mxCell>
        <mxCell id="00rONBYvEzlFTDpirwAL-67" value="" style="endArrow=none;rounded=0;entryX=1;entryY=0.5;entryDx=0;entryDy=0;fontSize=54;fontStyle=1;exitX=0;exitY=0.5;exitDx=0;exitDy=0;labelBorderColor=none;strokeWidth=5;" edge="1" parent="1" source="mHQkvC2rGd7bI0yAE8_2-75" target="mHQkvC2rGd7bI0yAE8_2-7">
          <mxGeometry width="50" height="50" relative="1" as="geometry">
            <mxPoint x="3665" y="2880" as="sourcePoint" />
            <mxPoint x="3415" y="2752" as="targetPoint" />
          </mxGeometry>
        </mxCell>
        <mxCell id="00rONBYvEzlFTDpirwAL-68" value="" style="endArrow=none;rounded=0;fontSize=54;fontStyle=1;exitX=0;exitY=0;exitDx=0;exitDy=0;labelBorderColor=none;strokeWidth=5;" edge="1" parent="1" source="mHQkvC2rGd7bI0yAE8_2-76" target="mHQkvC2rGd7bI0yAE8_2-7">
          <mxGeometry width="50" height="50" relative="1" as="geometry">
            <mxPoint x="3155" y="3130" as="sourcePoint" />
            <mxPoint x="2985" y="2992" as="targetPoint" />
          </mxGeometry>
        </mxCell>
        <mxCell id="00rONBYvEzlFTDpirwAL-71" style="edgeStyle=orthogonalEdgeStyle;rounded=0;orthogonalLoop=1;jettySize=auto;html=1;exitX=0.5;exitY=1;exitDx=0;exitDy=0;labelBorderColor=none;fontSize=54;strokeWidth=4;" edge="1" parent="1" source="mHQkvC2rGd7bI0yAE8_2-71" target="mHQkvC2rGd7bI0yAE8_2-71">
          <mxGeometry relative="1" as="geometry" />
        </mxCell>
        <mxCell id="00rONBYvEzlFTDpirwAL-72" value="&lt;font style=&quot;font-size: 54px;&quot;&gt;&lt;b style=&quot;font-size: 54px;&quot;&gt;Meal Plan&lt;/b&gt;&lt;/font&gt;" style="whiteSpace=wrap;html=1;align=center;labelBorderColor=none;fontSize=54;strokeWidth=4;" vertex="1" parent="1">
          <mxGeometry x="3320" y="3990" width="530" height="190" as="geometry" />
        </mxCell>
        <mxCell id="00rONBYvEzlFTDpirwAL-74" value="" style="endArrow=none;rounded=0;entryX=0.5;entryY=1;entryDx=0;entryDy=0;fontSize=54;fontStyle=1;labelBorderColor=none;strokeWidth=5;" edge="1" parent="1" target="00rONBYvEzlFTDpirwAL-57">
          <mxGeometry width="50" height="50" relative="1" as="geometry">
            <mxPoint x="3070" y="2920" as="sourcePoint" />
            <mxPoint x="2560" y="2382" as="targetPoint" />
          </mxGeometry>
        </mxCell>
        <mxCell id="00rONBYvEzlFTDpirwAL-76" value="Has" style="shape=rhombus;perimeter=rhombusPerimeter;align=center;fontSize=54;fontStyle=1;labelBorderColor=none;strokeWidth=5;" vertex="1" parent="1">
          <mxGeometry x="1700" y="3064" width="640" height="270" as="geometry" />
        </mxCell>
        <mxCell id="00rONBYvEzlFTDpirwAL-78" value="" style="endArrow=none;rounded=0;fontSize=54;fontStyle=1;entryX=0.984;entryY=0.481;entryDx=0;entryDy=0;entryPerimeter=0;labelBorderColor=none;strokeWidth=5;" edge="1" parent="1" target="00rONBYvEzlFTDpirwAL-76">
          <mxGeometry width="50" height="50" relative="1" as="geometry">
            <mxPoint x="3360" y="3050" as="sourcePoint" />
            <mxPoint x="2330" y="3250" as="targetPoint" />
            <Array as="points">
              <mxPoint x="3360" y="3194" />
            </Array>
          </mxGeometry>
        </mxCell>
        <mxCell id="00rONBYvEzlFTDpirwAL-79" value="" style="endArrow=none;rounded=0;entryX=1;entryY=0.5;entryDx=0;entryDy=0;fontSize=54;fontStyle=1;exitX=0;exitY=0.5;exitDx=0;exitDy=0;labelBorderColor=none;strokeWidth=5;" edge="1" parent="1" source="00rONBYvEzlFTDpirwAL-76" target="mHQkvC2rGd7bI0yAE8_2-5">
          <mxGeometry width="50" height="50" relative="1" as="geometry">
            <mxPoint x="1270" y="3240" as="sourcePoint" />
            <mxPoint x="880" y="3239" as="targetPoint" />
            <Array as="points">
              <mxPoint x="710" y="3199" />
            </Array>
          </mxGeometry>
        </mxCell>
        <mxCell id="00rONBYvEzlFTDpirwAL-80" value="" style="endArrow=none;rounded=0;entryX=0.5;entryY=1;entryDx=0;entryDy=0;fontSize=54;fontStyle=1;exitX=0;exitY=0.5;exitDx=0;exitDy=0;labelBorderColor=none;strokeWidth=4;" edge="1" parent="1" source="mHQkvC2rGd7bI0yAE8_2-8" target="mHQkvC2rGd7bI0yAE8_2-29">
          <mxGeometry width="50" height="50" relative="1" as="geometry">
            <mxPoint x="80" y="3650" as="sourcePoint" />
            <mxPoint x="-310" y="3649" as="targetPoint" />
            <Array as="points">
              <mxPoint x="825" y="3880" />
            </Array>
          </mxGeometry>
        </mxCell>
        <mxCell id="00rONBYvEzlFTDpirwAL-81" value="" style="endArrow=none;rounded=0;entryX=0.5;entryY=0;entryDx=0;entryDy=0;fontSize=54;fontStyle=1;labelBorderColor=none;strokeWidth=5;exitX=1;exitY=0.75;exitDx=0;exitDy=0;" edge="1" parent="1" source="mHQkvC2rGd7bI0yAE8_2-5" target="mHQkvC2rGd7bI0yAE8_2-29">
          <mxGeometry width="50" height="50" relative="1" as="geometry">
            <mxPoint x="430" y="3230" as="sourcePoint" />
            <mxPoint x="-530" y="3629" as="targetPoint" />
            <Array as="points">
              <mxPoint x="720" y="3390" />
            </Array>
          </mxGeometry>
        </mxCell>
        <mxCell id="00rONBYvEzlFTDpirwAL-82" value="Text" style="text;html=1;align=center;verticalAlign=middle;resizable=0;points=[];autosize=1;strokeColor=none;fillColor=none;labelBorderColor=none;fontSize=54;strokeWidth=5;" vertex="1" parent="1">
          <mxGeometry x="2430" y="3440" width="120" height="80" as="geometry" />
        </mxCell>
        <mxCell id="00rONBYvEzlFTDpirwAL-83" value="" style="endArrow=none;rounded=0;entryX=1;entryY=0.5;entryDx=0;entryDy=0;fontSize=54;fontStyle=1;exitX=0;exitY=0.5;exitDx=0;exitDy=0;labelBorderColor=none;strokeWidth=4;" edge="1" parent="1" source="mHQkvC2rGd7bI0yAE8_2-9" target="mHQkvC2rGd7bI0yAE8_2-18">
          <mxGeometry width="50" height="50" relative="1" as="geometry">
            <mxPoint x="2870" y="3840" as="sourcePoint" />
            <mxPoint x="2480" y="3839" as="targetPoint" />
          </mxGeometry>
        </mxCell>
        <mxCell id="00rONBYvEzlFTDpirwAL-84" value="" style="endArrow=none;rounded=0;entryX=1;entryY=0.5;entryDx=0;entryDy=0;fontSize=54;fontStyle=1;exitX=0;exitY=0.5;exitDx=0;exitDy=0;labelBorderColor=none;strokeWidth=4;" edge="1" parent="1" source="mHQkvC2rGd7bI0yAE8_2-18" target="mHQkvC2rGd7bI0yAE8_2-8">
          <mxGeometry width="50" height="50" relative="1" as="geometry">
            <mxPoint x="1920" y="3699" as="sourcePoint" />
            <mxPoint x="1530" y="3699" as="targetPoint" />
          </mxGeometry>
        </mxCell>
        <mxCell id="00rONBYvEzlFTDpirwAL-89" value="&lt;b&gt;&lt;font style=&quot;font-size: 54px;&quot;&gt;Experience&lt;/font&gt;&lt;/b&gt;" style="ellipse;whiteSpace=wrap;html=1;align=center;labelBorderColor=none;fontSize=54;strokeWidth=4;" vertex="1" parent="1">
          <mxGeometry x="710" y="4070" width="412.5" height="185" as="geometry" />
        </mxCell>
        <mxCell id="00rONBYvEzlFTDpirwAL-90" value="" style="endArrow=none;rounded=0;entryX=0.977;entryY=0.75;entryDx=0;entryDy=0;fontSize=54;fontStyle=1;entryPerimeter=0;labelBorderColor=none;strokeWidth=4;" edge="1" parent="1" target="mHQkvC2rGd7bI0yAE8_2-92">
          <mxGeometry width="50" height="50" relative="1" as="geometry">
            <mxPoint x="-430" y="3374" as="sourcePoint" />
            <mxPoint x="-585" y="3683" as="targetPoint" />
          </mxGeometry>
        </mxCell>
        <mxCell id="00rONBYvEzlFTDpirwAL-91" value="" style="endArrow=none;rounded=0;exitX=0.25;exitY=0;exitDx=0;exitDy=0;entryX=1;entryY=1;entryDx=0;entryDy=0;fontSize=54;fontStyle=1;labelBorderColor=none;strokeWidth=4;" edge="1" parent="1" source="mHQkvC2rGd7bI0yAE8_2-5" target="mHQkvC2rGd7bI0yAE8_2-93">
          <mxGeometry width="50" height="50" relative="1" as="geometry">
            <mxPoint x="-490" y="3749" as="sourcePoint" />
            <mxPoint x="-265" y="3593" as="targetPoint" />
          </mxGeometry>
        </mxCell>
        <mxCell id="00rONBYvEzlFTDpirwAL-92" value="" style="endArrow=none;rounded=0;exitX=0.5;exitY=0;exitDx=0;exitDy=0;entryX=0.408;entryY=1.063;entryDx=0;entryDy=0;fontSize=54;fontStyle=1;entryPerimeter=0;labelBorderColor=none;strokeWidth=4;" edge="1" parent="1" source="mHQkvC2rGd7bI0yAE8_2-5" target="mHQkvC2rGd7bI0yAE8_2-94">
          <mxGeometry width="50" height="50" relative="1" as="geometry">
            <mxPoint x="140" y="2909" as="sourcePoint" />
            <mxPoint x="-15" y="2737" as="targetPoint" />
          </mxGeometry>
        </mxCell>
        <mxCell id="00rONBYvEzlFTDpirwAL-94" value="" style="endArrow=none;rounded=0;exitX=0;exitY=0.324;exitDx=0;exitDy=0;entryX=1;entryY=0.5;entryDx=0;entryDy=0;fontSize=54;fontStyle=1;exitPerimeter=0;labelBorderColor=none;strokeWidth=4;" edge="1" parent="1" source="mHQkvC2rGd7bI0yAE8_2-69" target="mHQkvC2rGd7bI0yAE8_2-9">
          <mxGeometry width="50" height="50" relative="1" as="geometry">
            <mxPoint x="3410" y="3460" as="sourcePoint" />
            <mxPoint x="3255" y="3288" as="targetPoint" />
          </mxGeometry>
        </mxCell>
        <mxCell id="00rONBYvEzlFTDpirwAL-95" value="" style="endArrow=none;rounded=0;exitX=0;exitY=0.5;exitDx=0;exitDy=0;entryX=0.5;entryY=0;entryDx=0;entryDy=0;fontSize=54;fontStyle=1;labelBorderColor=none;strokeWidth=4;" edge="1" parent="1" source="mHQkvC2rGd7bI0yAE8_2-71" target="mHQkvC2rGd7bI0yAE8_2-9">
          <mxGeometry width="50" height="50" relative="1" as="geometry">
            <mxPoint x="3410" y="3650" as="sourcePoint" />
            <mxPoint x="3255" y="3478" as="targetPoint" />
          </mxGeometry>
        </mxCell>
        <mxCell id="00rONBYvEzlFTDpirwAL-96" value="" style="endArrow=none;rounded=0;exitX=0;exitY=0.5;exitDx=0;exitDy=0;entryX=0.5;entryY=1;entryDx=0;entryDy=0;fontSize=54;fontStyle=1;labelBorderColor=none;strokeWidth=4;" edge="1" parent="1" source="mHQkvC2rGd7bI0yAE8_2-70" target="mHQkvC2rGd7bI0yAE8_2-9">
          <mxGeometry width="50" height="50" relative="1" as="geometry">
            <mxPoint x="3670" y="4300" as="sourcePoint" />
            <mxPoint x="3515" y="4128" as="targetPoint" />
          </mxGeometry>
        </mxCell>
        <mxCell id="00rONBYvEzlFTDpirwAL-97" value="" style="endArrow=none;rounded=0;strokeWidth=4;fontSize=54;fontStyle=1;entryX=0.5;entryY=0;entryDx=0;entryDy=0;labelBorderColor=none;" edge="1" parent="1" target="00rONBYvEzlFTDpirwAL-58">
          <mxGeometry width="50" height="50" relative="1" as="geometry">
            <mxPoint x="870" y="980" as="sourcePoint" />
            <mxPoint x="860" y="2050" as="targetPoint" />
          </mxGeometry>
        </mxCell>
        <mxCell id="00rONBYvEzlFTDpirwAL-98" value="" style="endArrow=none;rounded=0;exitX=0.5;exitY=1;exitDx=0;exitDy=0;strokeWidth=5;fontSize=54;fontStyle=1;entryX=0;entryY=0.5;entryDx=0;entryDy=0;labelBorderColor=none;" edge="1" parent="1" source="00rONBYvEzlFTDpirwAL-58" target="mHQkvC2rGd7bI0yAE8_2-7">
          <mxGeometry width="50" height="50" relative="1" as="geometry">
            <mxPoint x="920" y="2440" as="sourcePoint" />
            <mxPoint x="923" y="2845" as="targetPoint" />
            <Array as="points">
              <mxPoint x="870" y="2943" />
            </Array>
          </mxGeometry>
        </mxCell>
        <mxCell id="00rONBYvEzlFTDpirwAL-99" value="" style="endArrow=none;rounded=0;strokeWidth=2;fontSize=54;fontStyle=1;entryX=0.5;entryY=0;entryDx=0;entryDy=0;labelBorderColor=none;" edge="1" parent="1" target="00rONBYvEzlFTDpirwAL-57">
          <mxGeometry width="50" height="50" relative="1" as="geometry">
            <mxPoint x="2000" y="2060" as="sourcePoint" />
            <mxPoint x="2000" y="2450" as="targetPoint" />
            <Array as="points" />
          </mxGeometry>
        </mxCell>
        <mxCell id="00rONBYvEzlFTDpirwAL-100" value="" style="endArrow=none;rounded=0;exitX=0.5;exitY=1;exitDx=0;exitDy=0;fontSize=54;fontStyle=1;labelBorderColor=none;strokeWidth=4;" edge="1" parent="1" source="mHQkvC2rGd7bI0yAE8_2-73">
          <mxGeometry width="50" height="50" relative="1" as="geometry">
            <mxPoint x="1290" y="3750" as="sourcePoint" />
            <mxPoint x="1490" y="3970" as="targetPoint" />
          </mxGeometry>
        </mxCell>
        <mxCell id="00rONBYvEzlFTDpirwAL-101" value="" style="endArrow=none;rounded=0;exitX=0.417;exitY=1;exitDx=0;exitDy=0;fontSize=54;fontStyle=1;exitPerimeter=0;labelBorderColor=none;strokeWidth=4;" edge="1" parent="1" source="mHQkvC2rGd7bI0yAE8_2-72" target="mHQkvC2rGd7bI0yAE8_2-8">
          <mxGeometry width="50" height="50" relative="1" as="geometry">
            <mxPoint x="1820" y="3830" as="sourcePoint" />
            <mxPoint x="1615" y="4065" as="targetPoint" />
          </mxGeometry>
        </mxCell>
        <mxCell id="00rONBYvEzlFTDpirwAL-102" value="" style="endArrow=none;rounded=0;entryX=1;entryY=0.5;entryDx=0;entryDy=0;fontSize=54;fontStyle=1;labelBorderColor=none;strokeWidth=4;" edge="1" parent="1" target="00rONBYvEzlFTDpirwAL-89">
          <mxGeometry width="50" height="50" relative="1" as="geometry">
            <mxPoint x="1410" y="4150" as="sourcePoint" />
            <mxPoint x="865" y="4565" as="targetPoint" />
          </mxGeometry>
        </mxCell>
        <mxCell id="00rONBYvEzlFTDpirwAL-103" style="edgeStyle=orthogonalEdgeStyle;rounded=0;orthogonalLoop=1;jettySize=auto;html=1;exitX=0.5;exitY=1;exitDx=0;exitDy=0;labelBorderColor=none;fontSize=54;strokeWidth=5;" edge="1" parent="1" source="mHQkvC2rGd7bI0yAE8_2-81" target="mHQkvC2rGd7bI0yAE8_2-81">
          <mxGeometry relative="1" as="geometry" />
        </mxCell>
      </root>
    </mxGraphModel>
  </diagram>
</mxfile>
